<svg xmlns="http://www.w3.org/2000/svg" xmlns:xlink="http://www.w3.org/1999/xlink"><symbol id="arrow" viewBox="0 0 18 11">
<path d="M1 1L9 9L17 1" stroke="#1F1E25" stroke-width="2" fill="none"/>
</symbol><symbol id="cards" viewBox="0 0 34 30">
<path d="M32.7022 4.39716L11.8788 0.0350432C10.9978 -0.149457 10.1246 0.413172 9.93822 1.28524L9.54261 3.80181L33.5692 8.83467L33.9649 6.31811C34.1512 5.44636 33.5832 4.58172 32.7022 4.39716Z" fill="#565EF5"/>
<path d="M23.9451 9.36838C23.7019 8.50137 22.7865 7.98889 21.9109 8.22926L17.9579 9.31553L8.63885 7.3633L7.61395 12.1567L1.21035 13.916C0.334793 14.1565 -0.182933 15.0625 0.0599021 15.9293L3.6687 28.8018C3.91193 29.6685 4.82732 30.1813 5.70288 29.9406L26.4035 24.2542C27.279 24.0134 27.7967 23.1077 27.5539 22.2406L26.9345 20.0308L29.2561 20.5167C30.1371 20.7015 31.0103 20.1389 31.1967 19.2668L32.6656 12.3962L24.3029 10.6445L23.9451 9.36838ZM26.3357 15.9107L26.8477 13.5157C26.9246 13.1571 27.2838 12.9258 27.646 13.0015L30.0656 13.5086C30.4282 13.5847 30.6619 13.9399 30.5854 14.2988L30.0734 16.6939C29.9965 17.0525 29.6374 17.2841 29.2751 17.2081L26.8555 16.7013C26.4926 16.6249 26.2589 16.2693 26.3357 15.9107ZM1.57058 15.2006L22.2704 9.51455C22.297 9.50745 22.3235 9.5041 22.3494 9.5041C22.466 9.5041 22.6055 9.57988 22.6463 9.72501L23.3522 12.2422L2.0638 18.0899L1.35797 15.573C1.31374 15.4151 1.41108 15.2444 1.57058 15.2006ZM26.2558 22.5968C26.283 22.6945 26.2545 22.7753 26.2255 22.8258C26.197 22.8763 26.1418 22.9424 26.0432 22.9692L5.34299 28.6556C5.31682 28.6627 5.28994 28.6664 5.26405 28.6664C5.14738 28.6664 5.00788 28.5903 4.9671 28.4452L2.8622 20.9368L24.1506 15.0888L26.2558 22.5968Z" fill="#565EF5"/>
<path d="M8.68804 23.1106C8.58871 22.7571 8.21587 22.5483 7.8587 22.6463L5.44118 23.3106C5.08435 23.4086 4.87313 23.778 4.97246 24.1316L5.64324 26.5242C5.74258 26.8778 6.11541 27.0865 6.47258 26.9882L8.8901 26.3242C9.24727 26.2262 9.45816 25.8568 9.35915 25.5033L8.68804 23.1106Z" fill="#565EF5"/>
</symbol><symbol id="cell" viewBox="0 0 20 34">
<path d="M17.6746 0H2.3254C1.04663 0 0 1.03263 0 2.29646V31.7026C0 32.9664 1.04663 34 2.3254 34H17.6746C18.9534 34 20 32.9683 20 31.7035V2.29646C20 1.03263 18.9534 0 17.6746 0ZM7.54476 1.65531H12.4552C12.6107 1.65531 12.7366 1.77966 12.7366 1.93411C12.7366 2.0876 12.6107 2.21194 12.4552 2.21194H7.54476C7.38934 2.21194 7.26343 2.0876 7.26343 1.93411C7.26343 1.77966 7.38934 1.65531 7.54476 1.65531ZM10 32.8518C9.35766 32.8518 8.8373 32.3379 8.8373 31.7026C8.8373 31.0673 9.35766 30.5543 10 30.5543C10.6423 30.5543 11.1627 31.0673 11.1627 31.7026C11.1627 32.3379 10.6423 32.8518 10 32.8518ZM18.3819 29.75H1.61814V3.64189H18.3819V29.75Z" fill="#565EF5"/>
</symbol><symbol id="close-eye" viewBox="0 0 22 12">
<path d="M8.29878 12L6.33638 11.4893L7.13618 8.59185C5.93899 8.16352 4.82634 7.5393 3.84654 6.7463L1.65854 8.86987L0.220528 7.47486L2.40955 5.35228C1.17386 3.91662 0.343585 2.19431 0 0.353927L2 0C2.77134 4.14262 6.50711 7.28557 11 7.28557C15.4919 7.28557 19.2287 4.14262 20 0L22 0.352941C21.6569 2.19358 20.827 3.91624 19.5915 5.35228L21.7795 7.47486L20.3415 8.86987L18.1535 6.7463C17.1737 7.5393 16.061 8.16352 14.8638 8.59185L15.6636 11.4903L13.7012 12L12.9004 9.10155C11.6426 9.31063 10.3574 9.31063 9.0996 9.10155L8.29878 12Z" fill="#1F1E25"/>
</symbol><symbol id="entrance" viewBox="0 0 20 22">
<path d="M2.22222 14.3H4.44444V19.8H17.7778V2.2H4.44444V7.7H2.22222V1.1C2.22222 0.808262 2.33929 0.528472 2.54766 0.322183C2.75603 0.115892 3.03865 0 3.33333 0H18.8889C19.1836 0 19.4662 0.115892 19.6746 0.322183C19.8829 0.528472 20 0.808262 20 1.1V20.9C20 21.1917 19.8829 21.4715 19.6746 21.6778C19.4662 21.8841 19.1836 22 18.8889 22H3.33333C3.03865 22 2.75603 21.8841 2.54766 21.6778C2.33929 21.4715 2.22222 21.1917 2.22222 20.9V14.3ZM8.88889 9.9V6.6L14.4444 11L8.88889 15.4V12.1H0V9.9H8.88889Z" fill="#1F1E25"/>
</symbol><symbol id="fb" viewBox="0 0 9 16">
<path d="M6 9.2H8.14286L9 6H6V4.4C6 3.576 6 2.8 7.71429 2.8H9V0.112C8.72057 0.0776001 7.66543 0 6.55114 0C4.224 0 2.57143 1.3256 2.57143 3.76V6H0V9.2H2.57143V16H6V9.2Z" fill="#1F1E25"/>
</symbol><symbol id="inst" viewBox="0 0 16 16">
<path d="M8 0C10.1736 0 10.4448 0.00799995 11.2976 0.048C12.1496 0.088 12.7296 0.2216 13.24 0.42C13.768 0.6232 14.2128 0.8984 14.6576 1.3424C15.0644 1.74232 15.3792 2.22607 15.58 2.76C15.7776 3.2696 15.912 3.8504 15.952 4.7024C15.9896 5.5552 16 5.8264 16 8C16 10.1736 15.992 10.4448 15.952 11.2976C15.912 12.1496 15.7776 12.7296 15.58 13.24C15.3797 13.7742 15.0649 14.2581 14.6576 14.6576C14.2576 15.0643 13.7738 15.379 13.24 15.58C12.7304 15.7776 12.1496 15.912 11.2976 15.952C10.4448 15.9896 10.1736 16 8 16C5.8264 16 5.5552 15.992 4.7024 15.952C3.8504 15.912 3.2704 15.7776 2.76 15.58C2.22586 15.3796 1.74202 15.0648 1.3424 14.6576C0.935525 14.2577 0.620745 13.774 0.42 13.24C0.2216 12.7304 0.088 12.1496 0.048 11.2976C0.0104 10.4448 0 10.1736 0 8C0 5.8264 0.00799995 5.5552 0.048 4.7024C0.088 3.8496 0.2216 3.2704 0.42 2.76C0.620189 2.22574 0.935043 1.74186 1.3424 1.3424C1.74214 0.935385 2.22594 0.620583 2.76 0.42C3.2704 0.2216 3.8496 0.088 4.7024 0.048C5.5552 0.0104 5.8264 0 8 0ZM8 4C6.93913 4 5.92172 4.42143 5.17157 5.17157C4.42143 5.92172 4 6.93913 4 8C4 9.06087 4.42143 10.0783 5.17157 10.8284C5.92172 11.5786 6.93913 12 8 12C9.06087 12 10.0783 11.5786 10.8284 10.8284C11.5786 10.0783 12 9.06087 12 8C12 6.93913 11.5786 5.92172 10.8284 5.17157C10.0783 4.42143 9.06087 4 8 4ZM13.2 3.8C13.2 3.53478 13.0946 3.28043 12.9071 3.09289C12.7196 2.90536 12.4652 2.8 12.2 2.8C11.9348 2.8 11.6804 2.90536 11.4929 3.09289C11.3054 3.28043 11.2 3.53478 11.2 3.8C11.2 4.06522 11.3054 4.31957 11.4929 4.50711C11.6804 4.69464 11.9348 4.8 12.2 4.8C12.4652 4.8 12.7196 4.69464 12.9071 4.50711C13.0946 4.31957 13.2 4.06522 13.2 3.8ZM8 5.6C8.63652 5.6 9.24697 5.85286 9.69706 6.30294C10.1471 6.75303 10.4 7.36348 10.4 8C10.4 8.63652 10.1471 9.24697 9.69706 9.69706C9.24697 10.1471 8.63652 10.4 8 10.4C7.36348 10.4 6.75303 10.1471 6.30294 9.69706C5.85286 9.24697 5.6 8.63652 5.6 8C5.6 7.36348 5.85286 6.75303 6.30294 6.30294C6.75303 5.85286 7.36348 5.6 8 5.6Z" fill="#1F1E25"/>
</symbol><symbol id="location" viewBox="0 0 37 42">
<path d="M30.8744 29.2842L18.5 41L6.12556 29.2842C3.67816 26.967 2.01147 24.0148 1.33625 20.8008C0.661026 17.5869 1.0076 14.2555 2.33214 11.228C3.65668 8.20049 5.89969 5.61285 8.77755 3.79229C11.6554 1.97172 15.0388 1 18.5 1C21.9612 1 25.3446 1.97172 28.2225 3.79229C31.1003 5.61285 33.3433 8.20049 34.6679 11.228C35.9924 14.2555 36.339 17.5869 35.6637 20.8008C34.9885 24.0148 33.3218 26.967 30.8744 29.2842Z" fill="#2C36F2"/>
<path d="M19.5179 10.2308H17.8214L10.3564 22.4884H12.562L13.5799 20.7373L19.5179 10.2308Z" fill="#2C36F2"/>
<path d="M11.3744 24.5897H25.6256L19.5179 13.733L18.5 15.4841L21.5538 20.7373L22.5718 22.4884H12.562H10.3564L11.3744 24.5897Z" fill="#2C36F2"/>
<path d="M22.5718 22.4884L21.5538 20.7373H15.4462H13.5799L12.562 22.4884H22.5718Z" fill="#2C36F2"/>
<path d="M25.6256 24.5897L26.6436 22.4884L19.5179 10.2308L13.5799 20.7373H15.4462L18.5 15.4841L19.5179 13.733L25.6256 24.5897Z" fill="#2C36F2"/>
<path d="M18.5 15.4841L15.4462 20.7373H21.5538L18.5 15.4841Z" fill="#2C36F2"/>
<path d="M25.6256 24.5897H11.3744L10.3564 22.4884M25.6256 24.5897L26.6436 22.4884L19.5179 10.2308M25.6256 24.5897L19.5179 13.733L18.5 15.4841M19.5179 10.2308H17.8214L10.3564 22.4884M19.5179 10.2308L13.5799 20.7373M10.3564 22.4884H12.562M18.5 15.4841L15.4462 20.7373M18.5 15.4841L21.5538 20.7373M15.4462 20.7373H21.5538M15.4462 20.7373H13.5799M21.5538 20.7373L22.5718 22.4884H12.562M13.5799 20.7373L12.562 22.4884M30.8744 29.2842L18.5 41L6.12556 29.2842C3.67816 26.967 2.01147 24.0148 1.33625 20.8008C0.661026 17.5869 1.0076 14.2555 2.33214 11.228C3.65668 8.20049 5.89969 5.61285 8.77755 3.79229C11.6554 1.97172 15.0388 1 18.5 1C21.9612 1 25.3446 1.97172 28.2225 3.79229C31.1003 5.61285 33.3433 8.20049 34.6679 11.228C35.9924 14.2555 36.339 17.5869 35.6637 20.8008C34.9885 24.0148 33.3218 26.967 30.8744 29.2842Z" stroke="#F6F7FF" stroke-width="0.5"/>
</symbol><symbol id="logo-login" viewBox="0 0 151 31">
<path d="M52.1 15H49.08V3.24H45.58C45.5 3.85333 45.4133 4.52 45.32 5.24C45.24 5.96 45.1467 6.69333 45.04 7.44C44.9467 8.17333 44.8467 8.87333 44.74 9.54C44.6333 10.1933 44.5267 10.7733 44.42 11.28C44.2467 12.1067 44.0133 12.8133 43.72 13.4C43.44 13.9867 43.0467 14.4333 42.54 14.74C42.0467 15.0467 41.4 15.2 40.6 15.2C40.08 15.2 39.6 15.1267 39.16 14.98V12.5C39.3333 12.5533 39.5 12.6 39.66 12.64C39.8333 12.68 40.02 12.7 40.22 12.7C40.6067 12.7 40.9 12.5 41.1 12.1C41.3133 11.6867 41.5267 10.92 41.74 9.8C41.82 9.37333 41.9333 8.70667 42.08 7.8C42.2267 6.89333 42.3867 5.83333 42.56 4.62C42.7467 3.39333 42.92 2.09333 43.08 0.719999H52.1V15ZM55.7023 0.719999H58.4223V7.62C58.4223 7.95333 58.4157 8.32667 58.4023 8.74C58.389 9.15333 58.3757 9.56 58.3623 9.96C58.349 10.3467 58.3357 10.6867 58.3223 10.98C58.309 11.26 58.2957 11.4533 58.2823 11.56H58.3423L64.9423 0.719999H68.5623V15H65.8623V8.14C65.8623 7.78 65.869 7.38667 65.8823 6.96C65.8957 6.52 65.909 6.1 65.9223 5.7C65.949 5.3 65.969 4.95333 65.9823 4.66C66.009 4.35333 66.029 4.15333 66.0423 4.06H65.9623L59.3423 15H55.7023V0.719999ZM81.1872 0.719999V3.22H75.1872V15H72.1672V0.719999H81.1872ZM90.7119 15L89.6719 11.6H84.4719L83.4319 15H80.1719L85.2119 0.66H88.9119L93.9719 15H90.7119ZM87.9119 5.74C87.8452 5.51333 87.7585 5.22667 87.6519 4.88C87.5452 4.53333 87.4385 4.18 87.3319 3.82C87.2252 3.46 87.1385 3.14667 87.0719 2.88C87.0052 3.14667 86.9119 3.48 86.7919 3.88C86.6852 4.26667 86.5785 4.64 86.4719 5C86.3785 5.34667 86.3052 5.59333 86.2519 5.74L85.2319 9.06H88.9519L87.9119 5.74ZM101.503 15V0.719999H110.523V3.22H104.523V6.2H105.723C107.07 6.2 108.17 6.38667 109.023 6.76C109.89 7.13333 110.53 7.64667 110.943 8.3C111.356 8.95333 111.563 9.7 111.563 10.54C111.563 11.9533 111.09 13.0533 110.143 13.84C109.21 14.6133 107.716 15 105.663 15H101.503ZM105.543 12.52C106.463 12.52 107.183 12.3733 107.703 12.08C108.236 11.7867 108.503 11.2733 108.503 10.54C108.503 9.78 108.216 9.28 107.643 9.04C107.07 8.8 106.29 8.68 105.303 8.68H104.523V12.52H105.543ZM118.497 3.86C119.964 3.86 121.084 4.18 121.857 4.82C122.644 5.44667 123.037 6.41333 123.037 7.72V15H120.957L120.377 13.52H120.297C119.83 14.1067 119.337 14.5333 118.817 14.8C118.297 15.0667 117.584 15.2 116.677 15.2C115.704 15.2 114.897 14.92 114.257 14.36C113.617 13.7867 113.297 12.9133 113.297 11.74C113.297 10.58 113.704 9.72667 114.517 9.18C115.33 8.62 116.55 8.31333 118.177 8.26L120.077 8.2V7.72C120.077 7.14667 119.924 6.72667 119.617 6.46C119.324 6.19333 118.91 6.06 118.377 6.06C117.844 6.06 117.324 6.14 116.817 6.3C116.31 6.44667 115.804 6.63333 115.297 6.86L114.317 4.84C114.904 4.53333 115.55 4.29333 116.257 4.12C116.977 3.94667 117.724 3.86 118.497 3.86ZM118.917 9.98C117.957 10.0067 117.29 10.18 116.917 10.5C116.544 10.82 116.357 11.24 116.357 11.76C116.357 12.2133 116.49 12.54 116.757 12.74C117.024 12.9267 117.37 13.02 117.797 13.02C118.437 13.02 118.977 12.8333 119.417 12.46C119.857 12.0733 120.077 11.5333 120.077 10.84V9.94L118.917 9.98ZM129.067 4.08V8.28H133.227V4.08H136.207V15H133.227V10.5H129.067V15H126.087V4.08H129.067ZM146.49 4.08H149.77L145.45 9.32L150.15 15H146.77L142.31 9.46V15H139.33V4.08H142.31V9.38L146.49 4.08Z" fill="#1F1E25"/>
<path d="M43.9219 21.6602H45.0059V28H43.9219V23.377L40.998 28H39.9141V21.6602H40.998V26.2891L43.9219 21.6602ZM51.9258 28H50.8418V25.293H47.9297V28H46.8398V21.6602H47.9297V24.4082H50.8418V21.6602H51.9258V28ZM58.3828 22.5391H56.2559V28H55.1719V22.5391H53.0859V21.6602H58.3828V22.5391ZM61.5996 28.1172C60.7402 28.1172 60.041 27.8359 59.502 27.2734C58.9629 26.707 58.6934 25.9512 58.6934 25.0059V24.8066C58.6934 24.1777 58.8125 23.6172 59.0508 23.125C59.293 22.6289 59.6289 22.2422 60.0586 21.9648C60.4922 21.6836 60.9609 21.543 61.4648 21.543C62.2891 21.543 62.9297 21.8145 63.3867 22.3574C63.8438 22.9004 64.0723 23.6777 64.0723 24.6895V25.1406H59.7773C59.793 25.7656 59.9746 26.2715 60.3223 26.6582C60.6738 27.041 61.1191 27.2324 61.6582 27.2324C62.041 27.2324 62.3652 27.1543 62.6309 26.998C62.8965 26.8418 63.1289 26.6348 63.3281 26.377L63.9902 26.8926C63.459 27.709 62.6621 28.1172 61.5996 28.1172ZM61.4648 22.4336C61.0273 22.4336 60.6602 22.5938 60.3633 22.9141C60.0664 23.2305 59.8828 23.6758 59.8125 24.25H62.9883V24.168C62.957 23.6172 62.8086 23.1914 62.543 22.8906C62.2773 22.5859 61.918 22.4336 61.4648 22.4336ZM70.6875 24.9004C70.6875 25.8652 70.4668 26.6426 70.0254 27.2324C69.584 27.8223 68.9863 28.1172 68.2324 28.1172C67.4629 28.1172 66.8574 27.873 66.416 27.3848V30.4375H65.332V21.6602H66.3223L66.375 22.3633C66.8164 21.8164 67.4297 21.543 68.2148 21.543C68.9766 21.543 69.5781 21.8301 70.0195 22.4043C70.4648 22.9785 70.6875 23.7773 70.6875 24.8008V24.9004ZM69.6035 24.7773C69.6035 24.0625 69.4512 23.498 69.1465 23.084C68.8418 22.6699 68.4238 22.4629 67.8926 22.4629C67.2363 22.4629 66.7441 22.7539 66.416 23.3359V26.3652C66.7402 26.9434 67.2363 27.2324 67.9043 27.2324C68.4238 27.2324 68.8359 27.0273 69.1406 26.6172C69.4492 26.2031 69.6035 25.5898 69.6035 24.7773ZM77.25 28H76.166V25.293H73.2539V28H72.1641V21.6602H73.2539V24.4082H76.166V21.6602H77.25V28ZM81.627 28.1172C80.7676 28.1172 80.0684 27.8359 79.5293 27.2734C78.9902 26.707 78.7207 25.9512 78.7207 25.0059V24.8066C78.7207 24.1777 78.8398 23.6172 79.0781 23.125C79.3203 22.6289 79.6562 22.2422 80.0859 21.9648C80.5195 21.6836 80.9883 21.543 81.4922 21.543C82.3164 21.543 82.957 21.8145 83.4141 22.3574C83.8711 22.9004 84.0996 23.6777 84.0996 24.6895V25.1406H79.8047C79.8203 25.7656 80.002 26.2715 80.3496 26.6582C80.7012 27.041 81.1465 27.2324 81.6855 27.2324C82.0684 27.2324 82.3926 27.1543 82.6582 26.998C82.9238 26.8418 83.1562 26.6348 83.3555 26.377L84.0176 26.8926C83.4863 27.709 82.6895 28.1172 81.627 28.1172ZM81.4922 22.4336C81.0547 22.4336 80.6875 22.5938 80.3906 22.9141C80.0938 23.2305 79.9102 23.6758 79.8398 24.25H83.0156V24.168C82.9844 23.6172 82.8359 23.1914 82.5703 22.8906C82.3047 22.5859 81.9453 22.4336 81.4922 22.4336ZM90 22.5391H87.873V28H86.7891V22.5391H84.7031V21.6602H90V22.5391ZM93.3105 24.8184H90.4512V23.9336H93.3105V24.8184ZM97.1543 22.0234C97.9512 22.0234 98.5879 22.291 99.0645 22.8262C99.5449 23.3574 99.7852 24.0586 99.7852 24.9297V25.0293C99.7852 25.627 99.6699 26.1621 99.4395 26.6348C99.209 27.1035 98.877 27.4688 98.4434 27.7305C98.0137 27.9883 97.5176 28.1172 96.9551 28.1172C96.1035 28.1172 95.418 27.834 94.8984 27.2676C94.3789 26.6973 94.1191 25.9336 94.1191 24.9766V24.4492C94.1191 23.1172 94.3652 22.0586 94.8574 21.2734C95.3535 20.4883 96.084 20.0098 97.0488 19.8379C97.5957 19.7402 97.9648 19.6211 98.1562 19.4805C98.3477 19.3398 98.4434 19.1465 98.4434 18.9004H99.334C99.334 19.3887 99.2227 19.7695 99 20.043C98.7812 20.3164 98.4297 20.5098 97.9453 20.623L97.1367 20.8047C96.4922 20.957 96.0078 21.2148 95.6836 21.5781C95.3633 21.9375 95.1543 22.418 95.0566 23.0195C95.6309 22.3555 96.3301 22.0234 97.1543 22.0234ZM96.9434 22.9141C96.4121 22.9141 95.9902 23.0938 95.6777 23.4531C95.3652 23.8086 95.209 24.3027 95.209 24.9355V25.0293C95.209 25.709 95.3652 26.248 95.6777 26.6465C95.9941 27.041 96.4199 27.2383 96.9551 27.2383C97.4941 27.2383 97.9199 27.0391 98.2324 26.6406C98.5449 26.2422 98.7012 25.6602 98.7012 24.8945C98.7012 24.2969 98.543 23.8184 98.2266 23.459C97.9141 23.0957 97.4863 22.9141 96.9434 22.9141ZM104.918 28C104.855 27.875 104.805 27.6523 104.766 27.332C104.262 27.8555 103.66 28.1172 102.961 28.1172C102.336 28.1172 101.822 27.9414 101.42 27.5898C101.021 27.2344 100.822 26.7852 100.822 26.2422C100.822 25.582 101.072 25.0703 101.572 24.707C102.076 24.3398 102.783 24.1562 103.693 24.1562H104.748V23.6582C104.748 23.2793 104.635 22.9785 104.408 22.7559C104.182 22.5293 103.848 22.416 103.406 22.416C103.02 22.416 102.695 22.5137 102.434 22.709C102.172 22.9043 102.041 23.1406 102.041 23.418H100.951C100.951 23.1016 101.062 22.7969 101.285 22.5039C101.512 22.207 101.816 21.9727 102.199 21.8008C102.586 21.6289 103.01 21.543 103.471 21.543C104.201 21.543 104.773 21.7266 105.188 22.0938C105.602 22.457 105.816 22.959 105.832 23.5996V26.5176C105.832 27.0996 105.906 27.5625 106.055 27.9062V28H104.918ZM103.119 27.1738C103.459 27.1738 103.781 27.0859 104.086 26.9102C104.391 26.7344 104.611 26.5059 104.748 26.2246V24.9238H103.898C102.57 24.9238 101.906 25.3125 101.906 26.0898C101.906 26.4297 102.02 26.6953 102.246 26.8867C102.473 27.0781 102.764 27.1738 103.119 27.1738ZM112.711 28H111.627V25.293H108.715V28H107.625V21.6602H108.715V24.4082H111.627V21.6602H112.711V28ZM116.432 25.2988H115.641V28H114.551V21.6602H115.641V24.3438H116.35L118.482 21.6602H119.795L117.287 24.707L120.006 28H118.629L116.432 25.2988Z" fill="#1F1E25"/>
<path d="M17.875 1H14.75L1 24.0488H5.0625L6.9375 20.7561L17.875 1Z" fill="#2C36F2"/>
<path d="M2.875 28H29.125L17.875 7.58537L16 10.878L21.625 20.7561L23.5 24.0488H5.0625H1L2.875 28Z" fill="#2C36F2"/>
<path d="M23.5 24.0488L21.625 20.7561H10.375H6.9375L5.0625 24.0488H23.5Z" fill="#2C36F2"/>
<path d="M29.125 28L31 24.0488L17.875 1L6.9375 20.7561H10.375L16 10.878L17.875 7.58537L29.125 28Z" fill="#2C36F2"/>
<path d="M16 10.878L10.375 20.7561H21.625L16 10.878Z" fill="#2C36F2"/>
<path d="M29.125 28H2.875L1 24.0488M29.125 28L31 24.0488L17.875 1M29.125 28L17.875 7.58537L16 10.878M17.875 1H14.75L1 24.0488M17.875 1L6.9375 20.7561M1 24.0488H5.0625M16 10.878L10.375 20.7561M16 10.878L21.625 20.7561M10.375 20.7561H21.625M10.375 20.7561H6.9375M21.625 20.7561L23.5 24.0488H5.0625M6.9375 20.7561L5.0625 24.0488" stroke="#F6F7FF"/>
</symbol><symbol id="logo-name" viewBox="0 0 112 16">
<path d="M13.1 15H10.08V3.24H6.58C6.5 3.85333 6.41333 4.52 6.32 5.24C6.24 5.96 6.14667 6.69333 6.04 7.44C5.94667 8.17333 5.84667 8.87333 5.74 9.54C5.63333 10.1933 5.52667 10.7733 5.42 11.28C5.24667 12.1067 5.01333 12.8133 4.72 13.4C4.44 13.9867 4.04667 14.4333 3.54 14.74C3.04667 15.0467 2.4 15.2 1.6 15.2C1.08 15.2 0.6 15.1267 0.16 14.98V12.5C0.333333 12.5533 0.5 12.6 0.66 12.64C0.833333 12.68 1.02 12.7 1.22 12.7C1.60667 12.7 1.9 12.5 2.1 12.1C2.31333 11.6867 2.52667 10.92 2.74 9.8C2.82 9.37333 2.93333 8.70667 3.08 7.8C3.22667 6.89333 3.38667 5.83333 3.56 4.62C3.74667 3.39333 3.92 2.09333 4.08 0.719999H13.1V15ZM16.7023 0.719999H19.4223V7.62C19.4223 7.95333 19.4157 8.32667 19.4023 8.74C19.389 9.15333 19.3757 9.56 19.3623 9.96C19.349 10.3467 19.3357 10.6867 19.3223 10.98C19.309 11.26 19.2957 11.4533 19.2823 11.56H19.3423L25.9423 0.719999H29.5623V15H26.8623V8.14C26.8623 7.78 26.869 7.38667 26.8823 6.96C26.8957 6.52 26.909 6.1 26.9223 5.7C26.949 5.3 26.969 4.95333 26.9823 4.66C27.009 4.35333 27.029 4.15333 27.0423 4.06H26.9623L20.3423 15H16.7023V0.719999ZM42.1872 0.719999V3.22H36.1872V15H33.1672V0.719999H42.1872ZM51.7119 15L50.6719 11.6H45.4719L44.4319 15H41.1719L46.2119 0.66H49.9119L54.9719 15H51.7119ZM49.9519 9.06L48.9119 5.74C48.8452 5.51333 48.7585 5.22667 48.6519 4.88C48.5452 4.53333 48.4385 4.18 48.3319 3.82C48.2252 3.46 48.1385 3.14667 48.0719 2.88C48.0052 3.14667 47.9119 3.48 47.7919 3.88C47.6852 4.26667 47.5785 4.64 47.4719 5C47.3785 5.34667 47.3052 5.59333 47.2519 5.74L46.2319 9.06H49.9519ZM62.5031 15V0.719999H71.5231V3.22H65.5231V6.2H66.7231C68.0698 6.2 69.1698 6.38667 70.0231 6.76C70.8898 7.13333 71.5298 7.64667 71.9431 8.3C72.3565 8.95333 72.5631 9.7 72.5631 10.54C72.5631 11.9533 72.0898 13.0533 71.1431 13.84C70.2098 14.6133 68.7165 15 66.6631 15H62.5031ZM65.5231 12.52H66.5431C67.4631 12.52 68.1831 12.3733 68.7031 12.08C69.2365 11.7867 69.5031 11.2733 69.5031 10.54C69.5031 9.78 69.2165 9.28 68.6431 9.04C68.0698 8.8 67.2898 8.68 66.3031 8.68H65.5231V12.52ZM79.497 3.86C80.9637 3.86 82.0837 4.18 82.857 4.82C83.6437 5.44667 84.037 6.41333 84.037 7.72V15H81.957L81.377 13.52H81.297C80.8304 14.1067 80.337 14.5333 79.817 14.8C79.297 15.0667 78.5837 15.2 77.677 15.2C76.7037 15.2 75.897 14.92 75.257 14.36C74.617 13.7867 74.297 12.9133 74.297 11.74C74.297 10.58 74.7037 9.72667 75.517 9.18C76.3304 8.62 77.5504 8.31333 79.177 8.26L81.077 8.2V7.72C81.077 7.14667 80.9237 6.72667 80.617 6.46C80.3237 6.19333 79.9104 6.06 79.377 6.06C78.8437 6.06 78.3237 6.14 77.817 6.3C77.3104 6.44667 76.8037 6.63333 76.297 6.86L75.317 4.84C75.9037 4.53333 76.5504 4.29333 77.257 4.12C77.977 3.94667 78.7237 3.86 79.497 3.86ZM81.077 9.94L79.917 9.98C78.957 10.0067 78.2904 10.18 77.917 10.5C77.5437 10.82 77.357 11.24 77.357 11.76C77.357 12.2133 77.4904 12.54 77.757 12.74C78.0237 12.9267 78.3704 13.02 78.797 13.02C79.437 13.02 79.977 12.8333 80.417 12.46C80.857 12.0733 81.077 11.5333 81.077 10.84V9.94ZM90.0673 4.08V8.28H94.2273V4.08H97.2073V15H94.2273V10.5H90.0673V15H87.0873V4.08H90.0673ZM107.49 4.08H110.77L106.45 9.32L111.15 15H107.77L103.31 9.46V15H100.33V4.08H103.31V9.38L107.49 4.08Z" fill="#1F1E25"/>
</symbol><symbol id="logo" viewBox="0 0 30 27">
<path d="M16.75 1H13.8333L1 22.3415H4.79167L6.54167 19.2927L16.75 1Z" fill="#2C36F2"/>
<path d="M2.75 26H27.25L16.75 7.09756L15 10.1463L20.25 19.2927L22 22.3415H4.79167H1L2.75 26Z" fill="#2C36F2"/>
<path d="M22 22.3415L20.25 19.2927H9.75H6.54167L4.79167 22.3415H22Z" fill="#2C36F2"/>
<path d="M27.25 26L29 22.3415L16.75 1L6.54167 19.2927H9.75L15 10.1463L16.75 7.09756L27.25 26Z" fill="#2C36F2"/>
<path d="M15 10.1463L9.75 19.2927H20.25L15 10.1463Z" fill="#2C36F2"/>
<path d="M27.25 26H2.75L1 22.3415M27.25 26L29 22.3415L16.75 1M27.25 26L16.75 7.09756L15 10.1463M16.75 1H13.8333L1 22.3415M16.75 1L6.54167 19.2927M1 22.3415H4.79167M15 10.1463L9.75 19.2927M15 10.1463L20.25 19.2927M9.75 19.2927H20.25M9.75 19.2927H6.54167M20.25 19.2927L22 22.3415H4.79167M6.54167 19.2927L4.79167 22.3415" stroke="#F6F7FF"/>
</symbol><symbol id="phone" viewBox="0 0 16 16">
<path d="M15.9991 11.9282V15.0712C15.9992 15.2962 15.914 15.5129 15.7605 15.6775C15.6071 15.8422 15.397 15.9425 15.1725 15.9582C14.7841 15.9849 14.4668 15.9991 14.2214 15.9991C6.36676 15.9991 0 9.63235 0 1.77768C0 1.53236 0.0133326 1.21504 0.0408866 0.826621C0.056639 0.602139 0.156952 0.391988 0.321585 0.238572C0.486218 0.0851569 0.702915 -0.000101713 0.927949 2.28058e-07H4.07089C4.18114 -0.000111402 4.28749 0.0407613 4.36929 0.114678C4.4511 0.188596 4.5025 0.29028 4.51353 0.399978C4.53397 0.604411 4.55264 0.767069 4.57041 0.890617C4.74706 2.12337 5.10905 3.32233 5.64413 4.44687C5.72857 4.62463 5.67346 4.83706 5.51347 4.95084L3.59536 6.32143C4.76814 9.05412 6.94588 11.2319 9.67857 12.4046L11.0474 10.4901C11.1033 10.4119 11.185 10.3558 11.278 10.3316C11.3711 10.3074 11.4697 10.3166 11.5567 10.3576C12.6811 10.8917 13.8797 11.2528 15.1121 11.4287C15.2356 11.4465 15.3983 11.466 15.6009 11.4856C15.7105 11.4968 15.8119 11.5483 15.8857 11.6301C15.9594 11.7119 16.0001 11.8181 16 11.9282H15.9991Z" fill="#1F1E25"/>
</symbol><symbol id="security" viewBox="0 0 28 34">
<path d="M27.9234 5.31216C22.1552 5.31216 17.7362 3.65462 13.9995 0C10.2631 3.65462 5.84431 5.31216 0.0766133 5.31216C0.0766133 14.8295 -1.88138 28.4631 13.9994 34C29.8813 28.4632 27.9234 14.8296 27.9234 5.31216ZM12.8461 22.0601L8.2074 17.3939L10.2843 15.3051L12.8461 17.8823L17.7151 12.9849L19.7919 15.0737L12.8461 22.0601Z" fill="#565EF5"/>
</symbol><symbol id="twitter" viewBox="0 0 16 13">
<path d="M15.9992 1.54324C15.4 1.80812 14.7645 1.98209 14.1138 2.05937C14.7996 1.64947 15.313 1.00438 15.5581 0.244297C14.9144 0.627078 14.2088 0.895338 13.4733 1.04045C12.9793 0.512227 12.3245 0.161908 11.6106 0.0439529C10.8968 -0.0740019 10.164 0.047017 9.52611 0.388195C8.88822 0.729374 8.38099 1.2716 8.08329 1.93057C7.78559 2.58954 7.71409 3.32833 7.87991 4.0321C6.57465 3.96673 5.29775 3.62777 4.13209 3.03724C2.96644 2.4467 1.93809 1.6178 1.11381 0.604331C0.822049 1.10512 0.668725 1.67441 0.669545 2.2539C0.669545 3.39126 1.24882 4.39606 2.12951 4.98435C1.60833 4.96795 1.09861 4.8273 0.642857 4.57411V4.6149C0.643014 5.37238 0.905313 6.1065 1.38528 6.69279C1.86525 7.27907 2.53335 7.68144 3.27629 7.83167C2.79248 7.96269 2.28517 7.98201 1.79278 7.88815C2.00225 8.54016 2.41052 9.11038 2.96043 9.51897C3.51034 9.92757 4.17436 10.1541 4.8595 10.1668C4.17856 10.7012 3.39888 11.0963 2.56506 11.3294C1.73123 11.5625 0.859598 11.6291 0 11.5253C1.50055 12.4897 3.24733 13.0017 5.0314 13C11.0699 13 14.3721 8.0011 14.3721 3.66579C14.3721 3.5246 14.3681 3.38184 14.3619 3.24222C15.0046 2.778 15.5593 2.20293 16 1.54403L15.9992 1.54324Z" fill="#1F1E25"/>
</symbol><symbol id="vault" viewBox="0 0 34 33">
<path d="M4.20734 26.063H29.7924V4.36579H4.20734V26.063ZM12.8681 11.7959C14.4742 11.7959 15.8268 12.8933 16.2055 14.3724H23.727V16.056H16.2055C15.8267 17.5352 14.4742 18.6327 12.8681 18.6327C10.9695 18.6327 9.42492 17.0991 9.42492 15.2142C9.42483 13.3294 10.9695 11.7959 12.8681 11.7959Z" fill="#2C36F2"/>
<path d="M0 0V30.4287H2.48008V33H5.44779V30.4287H28.5522V33H31.5199V30.4287H34V0H0ZM2.51162 27.7466V2.68218H31.4884V27.7466H2.51162Z" fill="#2C36F2"/>
</symbol><symbol id="youtube" viewBox="0 0 16 13">
<path d="M15.6344 2.02963C16 3.4775 16 6.5 16 6.5C16 6.5 16 9.5225 15.6344 10.9704C15.4312 11.7707 14.8368 12.4004 14.084 12.6132C12.7168 13 8 13 8 13C8 13 3.2856 13 1.916 12.6132C1.16 12.3971 0.5664 11.7683 0.3656 10.9704C2.38419e-08 9.5225 0 6.5 0 6.5C0 6.5 2.38419e-08 3.4775 0.3656 2.02963C0.5688 1.22931 1.1632 0.599625 1.916 0.38675C3.2856 -1.45286e-07 8 0 8 0C8 0 12.7168 -1.45286e-07 14.084 0.38675C14.84 0.602875 15.4336 1.23175 15.6344 2.02963ZM6.4 9.34375L11.2 6.5L6.4 3.65625V9.34375Z" fill="#1F1E25"/>
</symbol></svg>